<svg width="70" height="18" viewBox="0 0 70 18" fill="none" xmlns="http://www.w3.org/2000/svg">
<path d="M0.342 18L0.672 0.179999H3.114L6.26 14.634L9.428 0.179999H11.848L12.178 18H10.176L9.978 5.064L6.964 18H5.556L2.564 5.064L2.366 18H0.342ZM15.0414 18V0.179999H17.4834V18H15.0414ZM20.3665 18V0.179999H22.0605L27.1205 12.016V0.179999H29.1885V18H27.6045L22.4785 5.834V18H20.3665ZM32.1215 18V0.179999H34.5635V18H32.1215ZM37.4025 18L37.7325 0.179999H40.1745L43.3205 14.634L46.4885 0.179999H48.9085L49.2385 18H47.2365L47.0385 5.064L44.0245 18H42.6165L39.6245 5.064L39.4265 18H37.4025ZM51.002 18L54.786 0.179999H57.184L60.99 18H58.636L57.822 13.512H54.192L53.334 18H51.002ZM54.522 11.73H57.492L55.996 3.7L54.522 11.73ZM62.7981 18V0.179999H65.2841V16.218H69.8381V18H62.7981Z" fill="#333333"/>
</svg>
